<?xml version="1.0" encoding="utf-8"?>
<!-- Svg Vector Icons : http://www.onlinewebfonts.com/icon -->
<!DOCTYPE svg PUBLIC "-//W3C//DTD SVG 1.1//EN" "http://www.w3.org/Graphics/SVG/1.1/DTD/svg11.dtd">
<svg version="1.1" xmlns="http://www.w3.org/2000/svg" xmlns:xlink="http://www.w3.org/1999/xlink" x="0px" y="0px" viewBox="0 0 1000 1000" enable-background="new 0 0 1000 1000" xml:space="preserve">
<metadata> Svg Vector Icons : http://www.onlinewebfonts.com/icon </metadata>
<g><g transform="translate(0.000000,511.000000) scale(0.100000,-0.100000)"><path d="M4624.2,4980.2c-337.8-49-798.1-235-1089.4-440.7c-181.2-127.3-470.1-416.2-599.8-597.3c-629.2-881.3-629.2-2080.9,0-2962.3c129.7-181.2,418.6-470,599.8-597.3C4183.5-75.3,5060-207.5,5799.3,44.7c413.7,142,734.5,347.6,1042.9,670.8c215.5,225.2,301.2,342.7,426,594.9c428.4,849.5,357.4,1853.3-186.1,2619.5c-127.3,181.2-416.2,470.1-597.4,599.8C5958.5,4906.8,5270.5,5073.3,4624.2,4980.2z M5383.1,4578.7c822.6-144.4,1483.6-758.9,1708.8-1591.3c75.9-279.1,75.9-773.6,0-1052.7c-210.5-781-781-1351.4-1561.9-1561.9c-279.1-75.9-773.6-75.9-1052.7,0C3644.9,598,3030.4,1259,2886,2081.6C2628.9,3560.3,3904.4,4835.8,5383.1,4578.7z"/><path d="M2690.2-797.5c-374.6-122.4-871.5-367.2-1138.4-558.2C969.1-1771.8,533.3-2371.6,313-3059.6c-124.9-394.2-181.2-761.4-198.3-1277.9l-14.7-448h4901.2H9900v276.6c0,964.6-227.7,1770-678.1,2396.8c-181.2,252.1-580.2,634.1-842.1,810.3c-284,188.5-707.5,389.3-1074.8,506.8l-306,100.4L6710-841.5c-565.5-288.9-1064.9-406.4-1718.6-406.4c-634.1,2.4-1143.3,124.9-1696.6,408.8c-154.2,78.3-286.4,142-296.2,142C2991.3-699.5,2851.7-743.6,2690.2-797.5z M3123.5-1196.5c511.7-276.6,1251-455.4,1880.2-455.4c626.7,0,1419.9,193.4,1902.2,465.2l127.3,73.4l249.7-88.1c526.4-183.6,986.6-460.3,1319.6-793.2c411.3-411.3,680.6-920.5,807.9-1530.1c44.1-210.5,97.9-648.8,97.9-798.1v-71H5001.2H491.7l19.6,252.2c102.8,1476.2,822.6,2440.8,2191.1,2932.9c142,51.4,259.5,93,262,93C2966.8-1113.3,3040.2-1150,3123.5-1196.5z"/></g></g>
</svg>